<svg width="299" 
height="311" 
viewBox="0 0 299 311" 
fill="none" xmlns="http://www.w3.org/2000/svg">
<path fill-rule="evenodd" clip-rule="evenodd" d="M65.8138 101.297C78.7909 70.4409 78.5973 30.2223 106.797 12.2569C135.823 -6.23497 174.112 1.2 205.819 12.1025C237.887 23.1292 266.595 43.7497 283.669 73.0748C300.288 101.62 299.609 136.254 297.645 169.82C295.678 203.418 293.742 239.096 272.4 265.613C251.113 292.06 217.612 307.152 184.416 310.502C154.37 313.534 130.475 290.523 101.602 282.85C68.5664 274.071 18.4363 293.226 3.52978 262.431C-12.0664 230.212 30.2647 196.998 43.4868 162.791C51.5497 141.931 57.1392 121.923 65.8138 101.297Z" fill="#8EA57F"/>
</svg>
